<svg width="993" height="460" viewBox="0 0 993 460" fill="none" preserveAspectRatio='none' xmlns="http://www.w3.org/2000/svg">
<g opacity="0.07" clip-path="url(#clip0_120_82)">
<path style="mix-blend-mode:screen" d="M309.976 436.162C315.023 445.846 311.276 457.788 301.616 462.831C291.924 467.874 279.972 464.13 274.925 454.478C269.878 444.794 273.625 432.852 283.285 427.809C292.977 422.766 304.929 426.509 309.976 436.162Z" fill="url(#paint0_radial_120_82)"/>
<path style="mix-blend-mode:screen" d="M843.539 129.007C850.506 142.342 845.335 158.801 831.99 165.762C818.644 172.723 802.172 167.556 795.205 154.222C788.238 140.888 793.409 124.428 806.754 117.467C820.1 110.506 836.572 115.673 843.539 129.007Z" fill="url(#paint1_radial_120_82)"/>
<path style="mix-blend-mode:screen" d="M264.459 125.171C271.55 138.722 266.286 155.429 252.724 162.513C239.162 169.598 222.442 164.339 215.351 150.788C208.261 137.237 213.524 120.53 227.086 113.445C240.648 106.36 257.369 111.62 264.459 125.171Z" fill="url(#paint2_radial_120_82)"/>
<path style="mix-blend-mode:screen" d="M651.72 -0.778693C658.687 12.5557 653.516 29.0149 640.171 35.976C626.826 42.9371 610.353 37.7703 603.386 24.436C596.419 11.1016 601.59 -5.35758 614.936 -12.3187C628.281 -19.2798 644.753 -14.1131 651.72 -0.778693Z" fill="url(#paint3_radial_120_82)"/>
<path style="mix-blend-mode:screen" d="M613.449 314.451C614.688 316.802 613.759 319.742 611.406 320.979C609.052 322.217 606.111 321.288 604.872 318.937C603.634 316.586 604.563 313.647 606.916 312.409C609.269 311.172 612.211 312.1 613.449 314.451Z" fill="url(#paint4_radial_120_82)"/>
<path style="mix-blend-mode:screen" d="M359.208 244.376C362.026 249.759 359.951 256.38 354.563 259.195C349.176 262.011 342.55 259.938 339.732 254.555C336.914 249.171 338.989 242.551 344.376 239.735C349.764 236.92 356.39 238.993 359.208 244.376Z" fill="url(#paint5_radial_120_82)"/>
<path style="mix-blend-mode:screen" d="M764.551 295.826C768.267 302.911 765.511 311.667 758.42 315.379C751.33 319.092 742.567 316.338 738.851 309.253C735.136 302.169 737.891 293.413 744.982 289.7C752.073 285.988 760.835 288.741 764.551 295.826Z" fill="url(#paint6_radial_120_82)"/>
<path style="mix-blend-mode:screen" d="M624.441 212.571C631.315 225.689 626.206 241.87 613.109 248.738C599.98 255.607 583.786 250.502 576.912 237.384C570.038 224.266 575.147 208.085 588.276 201.217C601.404 194.349 617.598 199.454 624.472 212.571L624.441 212.571Z" fill="url(#paint7_radial_120_82)"/>
<path style="mix-blend-mode:screen" d="M9.93939 183.799C11.3018 186.367 10.28 189.553 7.71002 190.915C5.14005 192.276 1.95081 191.255 0.588412 188.687C-0.773982 186.119 0.247814 182.933 2.81779 181.571C5.38776 180.21 8.577 181.231 9.93939 183.799Z" fill="url(#paint8_radial_120_82)"/>
<path style="mix-blend-mode:screen" d="M303.133 147.601C304.712 150.602 303.535 154.315 300.532 155.893C297.528 157.47 293.813 156.295 292.234 153.294C290.654 150.293 291.831 146.58 294.834 145.002C297.838 143.424 301.554 144.6 303.133 147.601Z" fill="url(#paint9_radial_120_82)"/>
<path style="mix-blend-mode:screen" d="M991.049 256.689C995.446 265.074 992.195 275.438 983.804 279.8C975.413 284.193 965.04 280.945 960.674 272.561C956.308 264.176 959.528 253.812 967.919 249.45C976.31 245.057 986.683 248.305 991.049 256.689Z" fill="url(#paint10_radial_120_82)"/>
<path style="mix-blend-mode:screen" d="M176.988 304.489C181.601 313.306 178.195 324.197 169.371 328.807C160.546 333.416 149.647 330.013 145.033 321.196C140.42 312.378 143.826 301.488 152.65 296.878C161.475 292.268 172.374 295.672 176.988 304.489Z" fill="url(#paint11_radial_120_82)"/>
<path style="mix-blend-mode:screen" d="M684.261 116.571C687.172 122.171 685.004 129.07 679.431 131.978C673.826 134.887 666.921 132.721 664.011 127.152C661.1 121.552 663.268 114.653 668.841 111.745C674.446 108.837 681.35 111.002 684.261 116.571Z" fill="url(#paint12_radial_120_82)"/>
<path style="mix-blend-mode:screen" d="M447.944 68.4092C451.195 74.6588 448.78 82.3315 442.557 85.6109C436.302 88.8594 428.623 86.4462 425.341 80.2277C422.059 74.0091 424.505 66.3054 430.729 63.026C436.983 59.7775 444.662 62.1907 447.944 68.4092Z" fill="url(#paint13_radial_120_82)"/>
<path style="mix-blend-mode:screen" d="M48.2762 398.257C37.9765 388.302 21.5498 388.574 11.5861 398.865C1.62235 409.156 1.89474 425.57 12.1945 435.525C22.4942 445.481 38.9209 445.209 48.8846 434.917C58.8483 424.626 58.5759 408.213 48.2762 398.257Z" fill="url(#paint14_radial_120_82)"/>
<path style="mix-blend-mode:screen" d="M817.773 409.542C821.148 415.977 818.64 423.959 812.199 427.331C805.728 430.703 797.77 428.197 794.395 421.762C791.02 415.327 793.528 407.345 799.969 403.973C806.44 400.601 814.398 403.107 817.773 409.542Z" fill="url(#paint15_radial_120_82)"/>
<path style="mix-blend-mode:screen" d="M483.326 365.224C484.688 367.791 483.666 370.978 481.096 372.339C478.526 373.701 475.337 372.68 473.975 370.112C472.612 367.544 473.634 364.357 476.204 362.996C478.774 361.635 481.963 362.656 483.326 365.224Z" fill="url(#paint16_radial_120_82)"/>
<path style="mix-blend-mode:screen" d="M980.117 70.3563C983.028 75.9561 980.86 82.8553 975.287 85.7635C969.682 88.6717 962.777 86.506 959.867 80.9371C956.956 75.3373 959.124 68.4381 964.697 65.5299C970.302 62.6217 977.206 64.7874 980.117 70.3563Z" fill="url(#paint17_radial_120_82)"/>
<path style="mix-blend-mode:screen" d="M635.791 421.12C638.268 425.854 636.441 431.701 631.703 434.176C626.966 436.651 621.114 434.826 618.637 430.092C616.16 425.359 617.987 419.512 622.724 417.036C627.461 414.561 633.313 416.387 635.791 421.12Z" fill="url(#paint18_radial_120_82)"/>
<path style="mix-blend-mode:screen" d="M121.984 48.2173C126.722 57.2513 123.223 68.3891 114.181 73.1226C105.14 77.8562 93.9932 74.3601 89.2558 65.3262C84.5184 56.2922 88.0173 45.1544 97.0586 40.4209C106.1 35.6873 117.247 39.1834 121.984 48.2173Z" fill="url(#paint19_radial_120_82)"/>
</g>
<defs>
<radialGradient id="paint0_radial_120_82" cx="0" cy="0" r="1" gradientUnits="userSpaceOnUse" gradientTransform="translate(292.461 445.266) rotate(-27.5708) scale(19.7822 19.773)">
<stop offset="0.08" stop-color="#FFFFF2"/>
<stop offset="0.12" stop-color="#D4D4C9"/>
<stop offset="0.17" stop-color="#A8A89F"/>
<stop offset="0.23" stop-color="#7F7F79"/>
<stop offset="0.29" stop-color="#5D5D58"/>
<stop offset="0.35" stop-color="#40403C"/>
<stop offset="0.42" stop-color="#282826"/>
<stop offset="0.5" stop-color="#161615"/>
<stop offset="0.6" stop-color="#090909"/>
<stop offset="0.72" stop-color="#020202"/>
<stop offset="1"/>
</radialGradient>
<radialGradient id="paint1_radial_120_82" cx="0" cy="0" r="1" gradientUnits="userSpaceOnUse" gradientTransform="translate(819.384 141.549) rotate(-27.5708) scale(27.2431 27.2304)">
<stop offset="0.08" stop-color="#FFFFF2"/>
<stop offset="0.12" stop-color="#D4D4C9"/>
<stop offset="0.17" stop-color="#A8A89F"/>
<stop offset="0.23" stop-color="#7F7F79"/>
<stop offset="0.29" stop-color="#5D5D58"/>
<stop offset="0.35" stop-color="#40403C"/>
<stop offset="0.42" stop-color="#282826"/>
<stop offset="0.5" stop-color="#161615"/>
<stop offset="0.6" stop-color="#090909"/>
<stop offset="0.72" stop-color="#020202"/>
<stop offset="1"/>
</radialGradient>
<radialGradient id="paint2_radial_120_82" cx="0" cy="0" r="1" gradientUnits="userSpaceOnUse" gradientTransform="translate(239.939 137.959) rotate(-27.5708) scale(27.7075 27.6946)">
<stop offset="0.08" stop-color="#FFFFF2"/>
<stop offset="0.12" stop-color="#D4D4C9"/>
<stop offset="0.17" stop-color="#A8A89F"/>
<stop offset="0.23" stop-color="#7F7F79"/>
<stop offset="0.29" stop-color="#5D5D58"/>
<stop offset="0.35" stop-color="#40403C"/>
<stop offset="0.42" stop-color="#282826"/>
<stop offset="0.5" stop-color="#161615"/>
<stop offset="0.6" stop-color="#090909"/>
<stop offset="0.72" stop-color="#020202"/>
<stop offset="1"/>
</radialGradient>
<radialGradient id="paint3_radial_120_82" cx="0" cy="0" r="1" gradientUnits="userSpaceOnUse" gradientTransform="translate(627.572 11.7993) rotate(-27.5708) scale(27.2431 27.2304)">
<stop offset="0.08" stop-color="#FFFFF2"/>
<stop offset="0.12" stop-color="#D4D4C9"/>
<stop offset="0.17" stop-color="#A8A89F"/>
<stop offset="0.23" stop-color="#7F7F79"/>
<stop offset="0.29" stop-color="#5D5D58"/>
<stop offset="0.35" stop-color="#40403C"/>
<stop offset="0.42" stop-color="#282826"/>
<stop offset="0.5" stop-color="#161615"/>
<stop offset="0.6" stop-color="#090909"/>
<stop offset="0.72" stop-color="#020202"/>
<stop offset="1"/>
</radialGradient>
<radialGradient id="paint4_radial_120_82" cx="0" cy="0" r="1" gradientUnits="userSpaceOnUse" gradientTransform="translate(609.182 316.652) rotate(-27.5709) scale(4.82946 4.82721)">
<stop offset="0.08" stop-color="#FFFFF2"/>
<stop offset="0.12" stop-color="#D4D4C9"/>
<stop offset="0.17" stop-color="#A8A89F"/>
<stop offset="0.23" stop-color="#7F7F79"/>
<stop offset="0.29" stop-color="#5D5D58"/>
<stop offset="0.35" stop-color="#40403C"/>
<stop offset="0.42" stop-color="#282826"/>
<stop offset="0.5" stop-color="#161615"/>
<stop offset="0.6" stop-color="#090909"/>
<stop offset="0.72" stop-color="#020202"/>
<stop offset="1"/>
</radialGradient>
<radialGradient id="paint5_radial_120_82" cx="0" cy="0" r="1" gradientUnits="userSpaceOnUse" gradientTransform="translate(349.491 249.432) rotate(-27.5708) scale(10.9901 10.985)">
<stop offset="0.08" stop-color="#FFFFF2"/>
<stop offset="0.12" stop-color="#D4D4C9"/>
<stop offset="0.17" stop-color="#A8A89F"/>
<stop offset="0.23" stop-color="#7F7F79"/>
<stop offset="0.29" stop-color="#5D5D58"/>
<stop offset="0.35" stop-color="#40403C"/>
<stop offset="0.42" stop-color="#282826"/>
<stop offset="0.5" stop-color="#161615"/>
<stop offset="0.6" stop-color="#090909"/>
<stop offset="0.72" stop-color="#020202"/>
<stop offset="1"/>
</radialGradient>
<radialGradient id="paint6_radial_120_82" cx="0" cy="0" r="1" gradientUnits="userSpaceOnUse" gradientTransform="translate(751.689 302.494) rotate(-27.5708) scale(14.5194 14.5126)">
<stop offset="0.08" stop-color="#FFFFF2"/>
<stop offset="0.12" stop-color="#D4D4C9"/>
<stop offset="0.17" stop-color="#A8A89F"/>
<stop offset="0.23" stop-color="#7F7F79"/>
<stop offset="0.29" stop-color="#5D5D58"/>
<stop offset="0.35" stop-color="#40403C"/>
<stop offset="0.42" stop-color="#282826"/>
<stop offset="0.5" stop-color="#161615"/>
<stop offset="0.6" stop-color="#090909"/>
<stop offset="0.72" stop-color="#020202"/>
<stop offset="1"/>
</radialGradient>
<radialGradient id="paint7_radial_120_82" cx="0" cy="0" r="1" gradientUnits="userSpaceOnUse" gradientTransform="translate(600.683 224.918) rotate(-27.5708) scale(26.8097 26.7972)">
<stop offset="0.08" stop-color="#FFFFF2"/>
<stop offset="0.12" stop-color="#D4D4C9"/>
<stop offset="0.17" stop-color="#A8A89F"/>
<stop offset="0.23" stop-color="#7F7F79"/>
<stop offset="0.29" stop-color="#5D5D58"/>
<stop offset="0.35" stop-color="#40403C"/>
<stop offset="0.42" stop-color="#282826"/>
<stop offset="0.5" stop-color="#161615"/>
<stop offset="0.6" stop-color="#090909"/>
<stop offset="0.72" stop-color="#020202"/>
<stop offset="1"/>
</radialGradient>
<radialGradient id="paint8_radial_120_82" cx="0" cy="0" r="1" gradientUnits="userSpaceOnUse" gradientTransform="translate(5.29239 186.228) rotate(-27.5707) scale(5.26287 5.26041)">
<stop offset="0.08" stop-color="#FFFFF2"/>
<stop offset="0.12" stop-color="#D4D4C9"/>
<stop offset="0.17" stop-color="#A8A89F"/>
<stop offset="0.23" stop-color="#7F7F79"/>
<stop offset="0.29" stop-color="#5D5D58"/>
<stop offset="0.35" stop-color="#40403C"/>
<stop offset="0.42" stop-color="#282826"/>
<stop offset="0.5" stop-color="#161615"/>
<stop offset="0.6" stop-color="#090909"/>
<stop offset="0.72" stop-color="#020202"/>
<stop offset="1"/>
</radialGradient>
<radialGradient id="paint9_radial_120_82" cx="0" cy="0" r="1" gradientUnits="userSpaceOnUse" gradientTransform="translate(297.707 150.418) rotate(-27.5708) scale(6.16067 6.1578)">
<stop offset="0.08" stop-color="#FFFFF2"/>
<stop offset="0.12" stop-color="#D4D4C9"/>
<stop offset="0.17" stop-color="#A8A89F"/>
<stop offset="0.23" stop-color="#7F7F79"/>
<stop offset="0.29" stop-color="#5D5D58"/>
<stop offset="0.35" stop-color="#40403C"/>
<stop offset="0.42" stop-color="#282826"/>
<stop offset="0.5" stop-color="#161615"/>
<stop offset="0.6" stop-color="#090909"/>
<stop offset="0.72" stop-color="#020202"/>
<stop offset="1"/>
</radialGradient>
<radialGradient id="paint10_radial_120_82" cx="0" cy="0" r="1" gradientUnits="userSpaceOnUse" gradientTransform="translate(975.884 264.569) rotate(-27.5708) scale(17.1508 17.1428)">
<stop offset="0.08" stop-color="#FFFFF2"/>
<stop offset="0.12" stop-color="#D4D4C9"/>
<stop offset="0.17" stop-color="#A8A89F"/>
<stop offset="0.23" stop-color="#7F7F79"/>
<stop offset="0.29" stop-color="#5D5D58"/>
<stop offset="0.35" stop-color="#40403C"/>
<stop offset="0.42" stop-color="#282826"/>
<stop offset="0.5" stop-color="#161615"/>
<stop offset="0.6" stop-color="#090909"/>
<stop offset="0.72" stop-color="#020202"/>
<stop offset="1"/>
</radialGradient>
<radialGradient id="paint11_radial_120_82" cx="0" cy="0" r="1" gradientUnits="userSpaceOnUse" gradientTransform="translate(160.998 312.804) rotate(-27.5708) scale(18.0176 18.0092)">
<stop offset="0.08" stop-color="#FFFFF2"/>
<stop offset="0.12" stop-color="#D4D4C9"/>
<stop offset="0.17" stop-color="#A8A89F"/>
<stop offset="0.23" stop-color="#7F7F79"/>
<stop offset="0.29" stop-color="#5D5D58"/>
<stop offset="0.35" stop-color="#40403C"/>
<stop offset="0.42" stop-color="#282826"/>
<stop offset="0.5" stop-color="#161615"/>
<stop offset="0.6" stop-color="#090909"/>
<stop offset="0.72" stop-color="#020202"/>
<stop offset="1"/>
</radialGradient>
<radialGradient id="paint12_radial_120_82" cx="0" cy="0" r="1" gradientUnits="userSpaceOnUse" gradientTransform="translate(674.146 121.854) rotate(-27.5708) scale(11.4235 11.4182)">
<stop offset="0.08" stop-color="#FFFFF2"/>
<stop offset="0.12" stop-color="#D4D4C9"/>
<stop offset="0.17" stop-color="#A8A89F"/>
<stop offset="0.23" stop-color="#7F7F79"/>
<stop offset="0.29" stop-color="#5D5D58"/>
<stop offset="0.35" stop-color="#40403C"/>
<stop offset="0.42" stop-color="#282826"/>
<stop offset="0.5" stop-color="#161615"/>
<stop offset="0.6" stop-color="#090909"/>
<stop offset="0.72" stop-color="#020202"/>
<stop offset="1"/>
</radialGradient>
<radialGradient id="paint13_radial_120_82" cx="0" cy="0" r="1" gradientUnits="userSpaceOnUse" gradientTransform="translate(436.673 74.2853) rotate(-27.5708) scale(12.7547 12.7488)">
<stop offset="0.08" stop-color="#FFFFF2"/>
<stop offset="0.12" stop-color="#D4D4C9"/>
<stop offset="0.17" stop-color="#A8A89F"/>
<stop offset="0.23" stop-color="#7F7F79"/>
<stop offset="0.29" stop-color="#5D5D58"/>
<stop offset="0.35" stop-color="#40403C"/>
<stop offset="0.42" stop-color="#282826"/>
<stop offset="0.5" stop-color="#161615"/>
<stop offset="0.6" stop-color="#090909"/>
<stop offset="0.72" stop-color="#020202"/>
<stop offset="1"/>
</radialGradient>
<radialGradient id="paint14_radial_120_82" cx="0" cy="0" r="1" gradientUnits="userSpaceOnUse" gradientTransform="translate(30.1906 416.925) rotate(-27.5608) scale(25.9429 25.9308)">
<stop offset="0.08" stop-color="#FFFFF2"/>
<stop offset="0.12" stop-color="#D4D4C9"/>
<stop offset="0.17" stop-color="#A8A89F"/>
<stop offset="0.23" stop-color="#7F7F79"/>
<stop offset="0.29" stop-color="#5D5D58"/>
<stop offset="0.35" stop-color="#40403C"/>
<stop offset="0.42" stop-color="#282826"/>
<stop offset="0.5" stop-color="#161615"/>
<stop offset="0.6" stop-color="#090909"/>
<stop offset="0.72" stop-color="#020202"/>
<stop offset="1"/>
</radialGradient>
<radialGradient id="paint15_radial_120_82" cx="0" cy="0" r="1" gradientUnits="userSpaceOnUse" gradientTransform="translate(806.12 415.585) rotate(-27.5708) scale(13.1882 13.182)">
<stop offset="0.08" stop-color="#FFFFF2"/>
<stop offset="0.12" stop-color="#D4D4C9"/>
<stop offset="0.17" stop-color="#A8A89F"/>
<stop offset="0.23" stop-color="#7F7F79"/>
<stop offset="0.29" stop-color="#5D5D58"/>
<stop offset="0.35" stop-color="#40403C"/>
<stop offset="0.42" stop-color="#282826"/>
<stop offset="0.5" stop-color="#161615"/>
<stop offset="0.6" stop-color="#090909"/>
<stop offset="0.72" stop-color="#020202"/>
<stop offset="1"/>
</radialGradient>
<radialGradient id="paint16_radial_120_82" cx="0" cy="0" r="1" gradientUnits="userSpaceOnUse" gradientTransform="translate(478.68 367.614) rotate(-27.5708) scale(5.26288 5.26042)">
<stop offset="0.08" stop-color="#FFFFF2"/>
<stop offset="0.12" stop-color="#D4D4C9"/>
<stop offset="0.17" stop-color="#A8A89F"/>
<stop offset="0.23" stop-color="#7F7F79"/>
<stop offset="0.29" stop-color="#5D5D58"/>
<stop offset="0.35" stop-color="#40403C"/>
<stop offset="0.42" stop-color="#282826"/>
<stop offset="0.5" stop-color="#161615"/>
<stop offset="0.6" stop-color="#090909"/>
<stop offset="0.72" stop-color="#020202"/>
<stop offset="1"/>
</radialGradient>
<radialGradient id="paint17_radial_120_82" cx="0" cy="0" r="1" gradientUnits="userSpaceOnUse" gradientTransform="translate(969.986 75.5887) rotate(-27.5708) scale(11.4235 11.4182)">
<stop offset="0.08" stop-color="#FFFFF2"/>
<stop offset="0.12" stop-color="#D4D4C9"/>
<stop offset="0.17" stop-color="#A8A89F"/>
<stop offset="0.23" stop-color="#7F7F79"/>
<stop offset="0.29" stop-color="#5D5D58"/>
<stop offset="0.35" stop-color="#40403C"/>
<stop offset="0.42" stop-color="#282826"/>
<stop offset="0.5" stop-color="#161615"/>
<stop offset="0.6" stop-color="#090909"/>
<stop offset="0.72" stop-color="#020202"/>
<stop offset="1"/>
</radialGradient>
<radialGradient id="paint18_radial_120_82" cx="0" cy="0" r="1" gradientUnits="userSpaceOnUse" gradientTransform="translate(627.232 425.571) rotate(-27.5708) scale(9.65893 9.65443)">
<stop offset="0.08" stop-color="#FFFFF2"/>
<stop offset="0.12" stop-color="#D4D4C9"/>
<stop offset="0.17" stop-color="#A8A89F"/>
<stop offset="0.23" stop-color="#7F7F79"/>
<stop offset="0.29" stop-color="#5D5D58"/>
<stop offset="0.35" stop-color="#40403C"/>
<stop offset="0.42" stop-color="#282826"/>
<stop offset="0.5" stop-color="#161615"/>
<stop offset="0.6" stop-color="#090909"/>
<stop offset="0.72" stop-color="#020202"/>
<stop offset="1"/>
</radialGradient>
<radialGradient id="paint19_radial_120_82" cx="0" cy="0" r="1" gradientUnits="userSpaceOnUse" gradientTransform="translate(105.658 56.7376) rotate(-27.5708) scale(18.451 18.4424)">
<stop offset="0.08" stop-color="#FFFFF2"/>
<stop offset="0.12" stop-color="#D4D4C9"/>
<stop offset="0.17" stop-color="#A8A89F"/>
<stop offset="0.23" stop-color="#7F7F79"/>
<stop offset="0.29" stop-color="#5D5D58"/>
<stop offset="0.35" stop-color="#40403C"/>
<stop offset="0.42" stop-color="#282826"/>
<stop offset="0.5" stop-color="#161615"/>
<stop offset="0.6" stop-color="#090909"/>
<stop offset="0.72" stop-color="#020202"/>
<stop offset="1"/>
</radialGradient>
<clipPath id="clip0_120_82">
<rect width="460" height="993" fill="white" transform="translate(0 460) rotate(-90)"/>
</clipPath>
</defs>
</svg>
